<mxfile host="app.diagrams.net" modified="2023-09-23T07:45:13.083Z" agent="Mozilla/5.0 (Macintosh; Intel Mac OS X 10_15_7) AppleWebKit/537.36 (KHTML, like Gecko) Chrome/116.0.0.0 Safari/537.36" version="21.7.5" etag="Enmau6gEgUQP5lwsmV9s" type="github">
  <diagram name="第 1 页" id="RxvTJt0qo0vm2YNJzU18">
    <mxGraphModel>
      <root>
        <mxCell id="0" />
        <mxCell id="1" parent="0" />
      </root>
    </mxGraphModel>
  </diagram>
</mxfile>
